Coordinates
version=1
nRows=13
nColumns=36
inDegrees=yes

Units are S.I. units (second, meters, Newtons, ...)
If the header above contains a line with 'inDegrees', this indicates whether rotational values are in degrees (yes) or radians (no).

endheader
time	pelvis_tilt	pelvis_list	pelvis_rotation	pelvis_tx	pelvis_ty	pelvis_tz	hip_flexion_r	hip_adduction_r	hip_rotation_r	knee_angle_r	knee_angle_r_beta	ankle_angle_r	subtalar_angle_r	mtp_angle_r	hip_flexion_l	hip_adduction_l	hip_rotation_l	knee_angle_l	knee_angle_l_beta	ankle_angle_l	subtalar_angle_l	mtp_angle_l	lumbar_extension	lumbar_bending	lumbar_rotation	arm_flex_r	arm_add_r	arm_rot_r	elbow_flex_r	pro_sup_r	arm_flex_l	arm_add_l	arm_rot_l	elbow_flex_l	pro_sup_l
      0.67000000	     -1.64852288	      0.17084028	      2.72781675	      0.78909372	      0.93777776	     -0.20263223	     -1.47718838	     -2.73683838	     -5.25430139	     46.10672756	      0.80471420	      1.13577574	     -8.16251691	     -7.05646098	     24.26063733	     -2.27605390	     -5.23607520	     22.01404898	      0.38421764	      3.54659376	     -5.22154651	     -7.05646098	     -6.26171829	    -12.48183480	      5.28324844	      4.02219504	    -10.18154672	     -7.43975263	     51.99544937	    107.88009778	     -7.16971430	    -18.10579355	     17.24973655	     36.96121408	    108.20848632
      0.68000000	     -1.39026450	      0.78389386	      2.86202929	      0.80011581	      0.93653451	     -0.20469689	      0.19309915	     -3.77792795	     -5.55495581	     50.46391981	      0.88076155	      0.89997203	     -9.26920061	     -7.06142207	     24.05072638	     -1.69358326	     -5.48824903	     23.74450457	      0.41441978	      4.72020112	     -5.51166643	     -7.06142207	     -6.89414564	    -13.51714226	      4.34598090	      3.79988975	    -10.03816818	     -7.38597097	     52.19220041	    107.91259094	     -6.50672849	    -18.33258478	     17.04961788	     36.71134131	    108.18029949
      0.69000000	     -1.38856102	      1.14163022	      2.87553313	      0.81082049	      0.93468915	     -0.20625252	      2.26677061	     -4.42474204	     -5.53721745	     54.73267783	      0.95526544	      1.06256297	    -10.52351385	     -7.08077314	     24.22083445	     -1.52626591	     -5.94804926	     25.69102030	      0.44839289	      6.54364680	     -4.72102902	     -7.08077314	     -7.09938753	    -14.28399605	      3.64357346	      3.48633115	     -9.92334004	     -7.41172783	     52.42456814	    107.97735276	     -5.80172322	    -18.46910131	     16.57973994	     36.38777182	    108.20330118
      0.70000000	     -1.30139920	      1.58382821	      2.92631949	      0.82130941	      0.93301352	     -0.20783258	      4.23466454	     -5.17346706	     -5.60955985	     58.72613556	      1.02496442	      1.73802015	    -11.35949946	     -7.08943903	     24.15009075	     -1.19069310	     -6.29609533	     27.27201059	      0.47598638	      7.87384060	     -4.69492352	     -7.08943903	     -7.52731696	    -15.12508335	      2.87540923	      3.21894038	     -9.82697943	     -7.29560852	     52.59643150	    108.01202528	     -4.88798479	    -18.60380602	     16.17000364	     35.92313225	    108.16009529
      0.71000000	     -0.94398882	      1.92637431	      2.97022902	      0.83151357	      0.93186274	     -0.20934111	      5.87078760	     -5.74841790	     -5.66395037	     62.26004055	      1.08664270	      2.33889457	    -12.02467489	     -7.09234510	     23.70891863	     -0.94449338	     -6.54929804	     28.67370414	      0.50045055	      8.80359911	     -4.80678318	     -7.09234510	     -8.35165110	    -15.77586181	      1.98760627	      3.17275852	     -9.74010509	     -7.23078791	     52.69188993	    108.02366270	     -3.86221221	    -18.68350759	     15.82162771	     35.44132774	    108.08588284
      0.72000000	     -1.27571681	      2.15909277	      2.82320490	      0.84153870	      0.92974379	     -0.21047217	      8.44893818	     -6.16613986	     -5.40723517	     65.77560649	      1.14800090	      4.15233126	    -11.63144073	     -7.10735243	     24.02200389	     -0.94689671	     -7.24244055	     30.12464799	      0.52577429	     10.90087813	     -3.76838899	     -7.10735243	     -8.19508072	    -16.35326342	      1.53706151	      2.74273525	     -9.68021951	     -7.20435597	     52.86770918	    108.02616108	     -2.67817915	    -18.44066418	     14.85718404	     34.31555157	    107.90886400
      0.73000000	     -1.25140038	      2.39056933	      2.65323533	      0.85154245	      0.92852201	     -0.21172047	     10.56170435	     -6.56253249	     -5.28263665	     68.72349883	      1.19945133	      5.23732293	    -11.86301630	     -7.11297426	     23.68542943	     -0.79356426	     -7.51347833	     31.04279316	      0.54179895	     12.09066419	     -3.86598224	     -7.11297426	     -8.44485365	    -16.84186907	      0.96342287	      2.54939359	     -9.68208501	     -7.11235612	     52.84392417	    108.02099314	     -1.56879105	    -18.26858481	     14.18768654	     33.41689527	    107.74013227
      0.74000000	     -1.35673797	      2.47704465	      2.42612440	      0.86129631	      0.92749100	     -0.21277661	     12.82178562	     -6.67672604	     -5.00668099	     71.23592475	      1.24330143	      6.51574081	    -11.37547462	     -7.11960050	     23.46422446	     -0.78648314	     -7.75388367	     31.87181511	      0.55626811	     13.25923410	     -3.79685883	     -7.11960050	     -8.55511515	    -17.15688251	      0.52862059	      2.32326925	     -9.64431782	     -7.07707187	     52.72805912	    107.99442781	     -0.23953363	    -17.89124833	     13.19500865	     32.20110338	    107.47934044
      0.75000000	     -1.40995680	      2.50477857	      2.18371681	      0.87101699	      0.92698994	     -0.21375508	     14.95217966	     -6.65646019	     -4.75778533	     73.23191215	      1.27813798	      7.71922485	    -10.63299064	     -7.12591420	     23.06443809	     -0.79904804	     -7.92849393	     32.45407795	      0.56643052	     14.31335037	     -3.82132483	     -7.12591420	     -8.71672619	    -17.38190470	      0.11181284	      2.12150774	     -9.57733866	     -7.10586507	     52.53614479	    107.95435171	      1.12557412	    -17.46211338	     12.08896462	     30.97890215	    107.18694868
      0.76000000	     -1.41648254	      2.48046460	      1.92066186	      0.88071503	      0.92705306	     -0.21458768	     16.93376622	     -6.49145252	     -4.51049098	     74.69834096	      1.30373200	      8.71383174	     -9.81838482	     -7.13133308	     22.50294617	     -0.82680992	     -8.02964587	     32.80938126	      0.57263173	     15.20354628	     -3.95816738	     -7.13133308	     -8.92474511	    -17.53154881	     -0.27336684	      1.94504898	     -9.46901417	     -7.17741835	     52.26511442	    107.90959199	      2.52856906	    -16.99819119	     10.89826013	     29.82329917	    106.88462532
      0.77000000	     -1.38955253	      2.36664830	      1.62427402	      0.89048546	      0.92768828	     -0.21526304	     18.76709614	     -6.14493299	     -4.28379200	     75.64038762	      1.32017381	      9.66357773	     -8.71287335	     -7.13765065	     21.75406885	     -0.91389067	     -8.02229119	     32.87880899	      0.57384347	     15.92083456	     -4.05617417	     -7.13765065	     -9.09794888	    -17.55340998	     -0.56565380	      1.72126620	     -9.32399369	     -7.34587528	     51.93938758	    107.85577705	      3.94211455	    -16.42489213	      9.39746720	     28.66793342	    106.53334997
      0.78000000	     -1.27921449	      2.17293498	      1.52126081	      0.90042749	      0.92900572	     -0.21577452	     20.26088664	     -5.67104412	     -4.34681304	     75.91730025	      1.32500685	      9.78175828	     -8.60940998	     -7.13824673	     20.85731072	     -1.08614935	     -8.04638927	     32.77062430	      0.57195529	     16.05059398	     -4.10292216	     -7.13824673	     -9.48416393	    -17.47909330	     -1.20725747	      1.48436449	     -9.07112226	     -7.30073710	     51.75551446	    107.84579199	      4.90991630	    -16.38454136	      9.17053878	     28.73053525	    106.50061026
      0.79000000	     -1.15573582	      2.08077950	      1.13525744	      0.91031217	      0.93068605	     -0.21623955	     21.76694197	     -5.27333582	     -4.08628170	     75.98995688	      1.32627495	     11.03535324	     -6.67949720	     -7.15037300	     19.69168442	     -1.11145319	     -8.08140166	     32.26365271	      0.56310697	     16.72608629	     -4.15878122	     -7.15037300	     -9.67254413	    -17.45096210	     -1.30555303	      1.19267625	     -8.84571894	     -7.94734437	     51.40937587	    107.77177067	      6.46420806	    -15.23889844	      5.65983586	     27.34731318	    105.85219877
